<svg id="Layer_1" data-name="Layer 1" xmlns="http://www.w3.org/2000/svg" viewBox="0 0 379.093 79.1324"><defs><style>.cls-1{fill:#78a240;}.cls-2{fill:#687769;}</style></defs><path class="cls-1" d="M70.9936,19.5752a34.5142,34.5142,0,0,0-9.8678-8.8812q-.1779-.1065-.3568-.2107-.1444-.1484-.2907-.2951A34.6513,34.6513,0,0,0,1.3054,34.0956q-.0034.2072-.0041.4143-.0562.1992-.11.3993A34.6431,34.6431,0,0,0,51.4819,74.2008q.1812-.1008.3608-.2036.2007-.051.401-.1042a34.6216,34.6216,0,0,0,18.75-54.3178Zm-20.09,52.0975a32.263,32.263,0,0,1-23.9495-3.5821,34.606,34.606,0,0,0,38.689-15.6313,32.2636,32.2636,0,0,1-14.74,19.2134Zm14.6325-24.47A32.1215,32.1215,0,0,1,23.38,64.2353a32.4826,32.4826,0,0,1-3.3247-1.64,32.4889,32.4889,0,0,1-2.396-2.8291,32.1216,32.1216,0,0,1,6.3278-45.0247,32.5122,32.5122,0,0,1,3.0844-2.06,32.521,32.521,0,0,1,3.6467-.66A32.1216,32.1216,0,0,1,66.5465,40.0139a32.52,32.52,0,0,1,.2417,3.7A32.48,32.48,0,0,1,65.5361,47.203ZM3.7838,34.8587a32.2641,32.2641,0,0,1,15.0769-18.95A34.6063,34.6063,0,0,0,13.0534,57.23a32.2641,32.2641,0,0,1-9.27-22.3715Zm61.121-7.7725A34.606,34.606,0,0,0,35.2167,9.3008a32.2637,32.2637,0,0,1,24.0088,3.158,32.2643,32.2643,0,0,1,8.8726,22.532A34.4631,34.4631,0,0,0,64.9048,27.0862ZM6.3475,22.0789A32.1214,32.1214,0,0,1,48.5038,5.0467a32.4453,32.4453,0,0,1,3.8029,1.9161,35.0887,35.0887,0,0,0-4.1517-.84,34.5132,34.5132,0,0,0-22.0245,4.2348A34.5141,34.5141,0,0,0,7.3456,22.61,35.0778,35.0778,0,0,0,4.943,26.099,32.4557,32.4557,0,0,1,6.3475,22.0789ZM38.5541,75.8425A32.1214,32.1214,0,0,1,2.7256,47.85a32.4242,32.4242,0,0,1-.242-4.2515,35.0788,35.0788,0,0,0,1.3479,4.0158,34.5137,34.5137,0,0,0,14.68,16.9564A34.5147,34.5147,0,0,0,38.5153,74.7124a35.0883,35.0883,0,0,0,4.2227.3363A32.4541,32.4541,0,0,1,38.5541,75.8425ZM74.4126,32.1481a32.1215,32.1215,0,0,1-11.729,33.9454,32.4542,32.4542,0,0,1-3.561,2.3354,35.0889,35.0889,0,0,0,2.8039-3.1752,34.5148,34.5148,0,0,0,7.3448-21.1913,34.5143,34.5143,0,0,0-1.2192-22.3949,35.0937,35.0937,0,0,0-1.82-3.825,32.4489,32.4489,0,0,1,2.7793,3.2264A32.0459,32.0459,0,0,1,74.4126,32.1481Z"/><circle class="cls-1" cx="37.971" cy="39.6634" r="22.0981"/><path class="cls-2" d="M106.0252,32.2775c-8.7532,0-14.5092-6.2357-14.5092-14.4292a14.2635,14.2635,0,0,1,14.43-14.5092,15.1081,15.1081,0,0,1,10.7516,3.7976L113.58,10.8533a10.96,10.96,0,0,0-7.8344-2.9973c-5.1562,0-9.0734,4.4769-9.0734,9.9123,0,5.7955,3.7972,10.0323,9.5131,10.0323a11.4248,11.4248,0,0,0,6.7549-2.1179V20.4464h-7.1546V16.17h11.9112v11.751A17.8351,17.8351,0,0,1,106.0252,32.2775Z"/><path class="cls-2" d="M142.0436,31.7983l-6.8745-9.7532h-6.1556v9.7532h-4.9161V3.8193h12.47c6.4352,0,10.3924,3.3974,10.3924,8.8728,0,4.637-2.7582,7.4342-6.6749,8.5137L147.84,31.7983ZM136.1681,8.2952h-7.1546v9.393h7.1946c3.5175,0,5.756-1.8387,5.756-4.716C141.9641,9.8939,139.8056,8.2952,136.1681,8.2952Z"/><path class="cls-2" d="M173.7451,8.2152H157.9168V15.49h14.03v4.3969h-14.03v7.5142h16.0279v4.3969h-20.944V3.8193h20.7444Z"/><path class="cls-2" d="M200.53,8.2152H184.7012V15.49h14.03v4.3969h-14.03v7.5142h16.0279v4.3969h-20.944V3.8193H200.53Z"/><path class="cls-2" d="M226.1149,3.8193h4.8361v27.979h-4.1168L211.4056,11.8927V31.7983H206.57V3.8193h4.5565l14.9889,19.3453Z"/><path class="cls-2" d="M243.0671,20.0072V31.7983H238.151V3.8193h4.9161V15.45h13.35V3.8193h4.9171v27.979h-4.9171V20.0072Z"/><path class="cls-2" d="M281.4445,32.2775a14.2112,14.2112,0,0,1-14.5893-14.4292,14.63,14.63,0,0,1,29.2586-.08A14.3442,14.3442,0,0,1,281.4445,32.2775Zm0-24.4215c-5.5554,0-9.4331,4.4369-9.4331,9.9123s3.9577,9.9923,9.5131,9.9923,9.4331-4.4359,9.4331-9.9123S287.0008,7.856,281.4445,7.856Z"/><path class="cls-2" d="M325.5773,19.6871c0,8.3536-4.716,12.55-12.0312,12.55-7.2741,0-11.9111-4.1968-11.9111-12.31V3.8193h4.9171V19.7271c0,5.1962,2.6772,7.9944,7.0741,7.9944,4.3568,0,7.035-2.6381,7.035-7.7943V3.8193h4.9161Z"/><path class="cls-2" d="M343.1288,15.57c5.9155,1.4386,8.9938,3.5575,8.9938,8.2336,0,5.2762-4.1177,8.3936-9.9933,8.3936a17.2354,17.2354,0,0,1-11.671-4.476l2.9583-3.5175a12.881,12.881,0,0,0,8.8328,3.6366c3.0383,0,4.9561-1.3986,4.9561-3.5565,0-2.0389-1.1185-3.1184-6.3147-4.3169-5.9556-1.44-9.313-3.1984-9.313-8.3946,0-4.8761,3.9967-8.1535,9.5521-8.1535a15.5117,15.5117,0,0,1,10.1533,3.5175l-2.6381,3.7176a12.7066,12.7066,0,0,0-7.5943-2.8782c-2.8782,0-4.5569,1.4786-4.5569,3.3574C336.4939,13.3314,337.7725,14.2908,343.1288,15.57Z"/><path class="cls-2" d="M378.666,8.2152H362.8381V15.49h14.03v4.3969h-14.03v7.5142H378.866v4.3969H357.922V3.8193h20.744Z"/><path class="cls-2" d="M106.77,79.0248c-6.058,0-10.71-2.0016-15.2541-6.0585l1.84-2.11c4.1651,3.8407,8.0053,5.6255,13.5775,5.6255,5.68,0,9.5743-3.1914,9.5743-7.5189V68.855c0-4.0031-2.1092-6.329-10.7109-8.06-9.0875-1.8391-12.7657-4.9225-12.7657-10.6566V50.03c0-5.6255,5.1386-9.953,12.1713-9.953a18.8743,18.8743,0,0,1,12.982,4.5976l-1.7853,2.2183A16.2963,16.2963,0,0,0,105.0934,42.62c-5.5711,0-9.2494,3.1914-9.2494,7.14v.1082c0,4.0031,2.0549,6.4371,11.0348,8.2763,8.7636,1.7853,12.4418,4.9229,12.4418,10.44v.1081C119.3206,74.8054,114.0733,79.0248,106.77,79.0248Z"/><path class="cls-2" d="M143.5527,79.1324c-10.8185,0-18.8248-8.6007-18.8248-19.4735v-.1081c0-10.71,8.0063-19.5816,18.9324-19.5816,6.7621,0,10.82,2.4878,14.714,6.058l-2.0016,2.0558c-3.3-3.1914-7.0859-5.5717-12.7657-5.5717-9.0885,0-15.9582,7.4109-15.9582,16.9314v.1081c0,9.5748,6.9783,17.0394,16.0115,17.0394,5.4636,0,9.1961-2.11,13.0373-5.896l1.893,1.8391C154.5874,76.4821,150.26,79.1324,143.5527,79.1324Z"/><path class="cls-2" d="M191.207,78.4837V60.7412H166.973V78.4837H164.16V40.6179h2.8132V58.1442h24.234V40.6179H194.02V78.4837Z"/><path class="cls-2" d="M220.4148,79.1324c-11.4672,0-18.9867-9.1413-18.9867-19.4735v-.1081c0-10.3317,7.6271-19.5816,19.0954-19.5816S239.51,49.111,239.51,59.4427c.0543.0543.0543.0543,0,.1081C239.51,69.883,231.8831,79.1324,220.4148,79.1324Zm16.1745-19.5816c0-9.3581-6.8164-17.04-16.1745-17.04S204.349,50.0846,204.349,59.4427v.1081c0,9.3581,6.8164,17.0394,16.1745,17.0394s16.0658-7.5727,16.0658-16.9313Z"/><path class="cls-2" d="M246.918,78.4837V40.6179h2.8133V75.8872h21.1072v2.5965Z"/><path class="cls-2" d="M307.8564,78.4837l-4.8138-10.6023H280.7015l-4.8138,10.6023h-2.9219l17.6349-38.1364h2.7046L310.94,78.4837ZM291.8992,43.4312,281.8914,65.3387h19.9613Z"/><path class="cls-2" d="M344.0425,78.4837,331.98,62.7965H319.5922V78.4837H316.779V40.6179h15.9039c8.1682,0,13.5231,4.4356,13.5231,10.7647v.1081c0,6.3291-4.7062,9.9535-11.0891,10.819l12.4962,16.174Zm-.6488-26.993c0-5.0848-4.0031-8.2763-10.8728-8.2763H319.5922v17.04H332.358c6.33,0,11.0357-3.1915,11.0357-8.655Z"/><path class="cls-2" d="M366.5425,79.0248c-6.058,0-10.71-2.0016-15.2541-6.0585l1.84-2.11c4.1651,3.8407,8.0053,5.6255,13.5775,5.6255,5.68,0,9.5743-3.1914,9.5743-7.5189V68.855c0-4.0031-2.1092-6.329-10.7109-8.06-9.0875-1.8391-12.7657-4.9225-12.7657-10.6566V50.03c0-5.6255,5.1386-9.953,12.1713-9.953a18.8743,18.8743,0,0,1,12.982,4.5976l-1.7853,2.2183A16.2962,16.2962,0,0,0,364.8659,42.62c-5.5712,0-9.25,3.1914-9.25,7.14v.1082c0,4.0031,2.0549,6.4371,11.0348,8.2763,8.7636,1.7853,12.4418,4.9229,12.4418,10.44v.1081C379.093,74.8054,373.8457,79.0248,366.5425,79.0248Z"/></svg>